<?xml version="1.0" ?><!DOCTYPE svg  PUBLIC '-//W3C//DTD SVG 1.1 Tiny//EN'  'http://www.w3.org/Graphics/SVG/1.1/DTD/svg11-tiny.dtd'><svg baseProfile="tiny" version="1.1" viewBox="0 0 128 128" xml:space="preserve" xmlns="http://www.w3.org/2000/svg" xmlns:xlink="http://www.w3.org/1999/xlink"><g><g id="BACKGROUND"/><g id="Layer_3"><g><path d="M49.1,62.4c0-0.8,0.6-1.4,1.4-1.4c0.8,0,1.4,0.6,1.4,1.4l-0.1,18.1c0,0.8-0.6,1.4-1.4,1.4      c-0.8,0-1.4-0.6-1.4-1.4L49.1,62.4z" fill="#002535"/><path d="M76.1,62.4c0-0.8,0.6-1.4,1.4-1.4c0.8,0,1.4,0.6,1.4,1.4l-0.1,18.1c0,0.8-0.6,1.4-1.4,1.4      c-0.8,0-1.4-0.6-1.4-1.4L76.1,62.4z" fill="#002535"/><path d="M22.6,62.9c-0.6-0.5-0.7-1.4-0.2-2c0.5-0.6,1.4-0.7,2-0.2l24.4,20.9c0.6,0.5,0.7,1.4,0.2,2      c-0.5,0.6-1.4,0.7-2,0.2L22.6,62.9z" fill="#002535"/><path d="M79.7,83.9c-0.6,0.5-1.5,0.4-2-0.2c-0.5-0.6-0.4-1.5,0.2-2l25.7-20.9c0.6-0.5,1.5-0.4,2,0.2      c0.5,0.6,0.4,1.5-0.2,2L79.7,83.9z" fill="#002535"/><path d="M55,80.5H73c2.4,0,4.4,2,4.4,4.4V103c0,2.4-2,4.4-4.4,4.4H55c-2.4,0-4.4-2-4.4-4.4      V84.9C50.5,82.5,52.5,80.5,55,80.5z" fill="#F7D309" fill-rule="evenodd"/><path d="M48.8,85.1h29.1c1.3,0,2.3-1,2.3-2.3v0c0-1.3-1-2.3-2.3-2.3H48.8      c-1.3,0-2.3,1-2.3,2.3v0C46.5,84.1,47.5,85.1,48.8,85.1z" fill="#DBBC26" fill-rule="evenodd"/><path d="M50.5,63.9L50.5,63.9c-0.8,0-1.4-0.6-1.4-1.4l0,0h0c0-3.3-1.4-6.4-3.5-8.6      c-2.2-2.2-5.2-3.5-8.6-3.5c-3.3,0-6.2,1.3-8.4,3.4c-2.2,2.1-3.6,5-3.7,8.2c0,0.8-0.7,1.4-1.5,1.3c-0.8,0-1.4-0.7-1.3-1.5l0,0      c0.2-11.4,4.9-21.7,12.5-29.2c7.6-7.5,18-12.1,29.4-12.1c11.5,0,21.9,4.6,29.4,12.1c7.6,7.5,12.3,17.8,12.5,29.2l0,0h0l0,0      c0,0.8-0.6,1.4-1.4,1.4c-0.8,0-1.4-0.6-1.4-1.3h0c-0.1-3.2-1.5-6.1-3.7-8.2c-2.2-2.1-5.1-3.4-8.4-3.4c-3.3,0-6.4,1.4-8.6,3.5      c-2.2,2.2-3.5,5.2-3.5,8.6h0l0,0c0,0.8-0.6,1.4-1.4,1.4h0v0h0c-0.8,0-1.4-0.6-1.4-1.4l0,0h0c0-3.3-1.4-6.4-3.5-8.6      c-2.2-2.2-5.2-3.5-8.6-3.5c-3.3,0-6.4,1.4-8.6,3.5c-2.2,2.2-3.5,5.2-3.5,8.6h0l0,0C51.9,63.2,51.3,63.9,50.5,63.9L50.5,63.9      L50.5,63.9z" fill="#E0ECC1" fill-rule="evenodd"/><path d="M34.6,32.6C27,40.1,22.3,50.4,22.1,61.8l0,0c0,0.8,0.6,1.4,1.3,1.5      c0.4,0,0.8-0.2,1.1-0.5c0.2-0.2,0.4-0.5,0.4-0.9c0.1-3.2,1.5-6.1,3.7-8.2c2.2-2.1,5.1-3.4,8.4-3.4c3.3,0,6.4,1.4,8.6,3.5      c2.2,2.2,3.5,5.2,3.5,8.6l0,0c0,0.8,0.6,1.4,1.4,1.4c0,0,0,0,0,0c0-15.2,5.6-35.4,13.5-43.4C52.5,20.5,42.1,25.1,34.6,32.6z" fill="#EE464A" fill-rule="evenodd"/><path d="M93.4,32.6c7.6,7.5,12.3,17.8,12.5,29.2l0,0c0,0.8-0.6,1.4-1.3,1.5      c-0.4,0-0.8-0.2-1.1-0.5c-0.2-0.2-0.4-0.5-0.4-0.9c-0.1-3.2-1.5-6.1-3.7-8.2c-2.2-2.1-5.1-3.4-8.4-3.4c-3.3,0-6.4,1.4-8.6,3.5      c-2.2,2.2-3.5,5.2-3.5,8.6l0,0c0,0.8-0.6,1.4-1.4,1.4c0,0,0,0,0,0c0-15.2-5.6-35.4-13.5-43.4C75.5,20.5,85.9,25.1,93.4,32.6z" fill="#E53839" fill-rule="evenodd"/></g></g><g id="GUIDELINE"/></g></svg>